<svg height="512pt" viewBox="-90 0 512 512.001" width="512pt" xmlns="http://www.w3.org/2000/svg"><g fill-rule="evenodd"><path d="m292.199219 68.703125h-27.945313c-3.664062-15.59375-15.671875-28.265625-31.136718-32.675781-3.90625-20.488282-21.957032-36.027344-43.566407-36.027344h-46.878906c-21.59375 0-39.628906 15.507812-43.558594 36.027344-15.46875 4.40625-27.484375 17.074218-31.148437 32.675781h-27.941406c-22.066407 0-40.023438 17.953125-40.023438 40.019531v263.253906c0 5.523438 4.476562 10 10 10s10-4.476562 10-10v-263.253906c0-11.039062 8.984375-20.019531 20.023438-20.019531h27.925781c4.546875 19.652344 22.183593 34.351563 43.199219 34.351563h109.925781c21.015625 0 38.648437-14.699219 43.199219-34.351563h27.925781c11.039062 0 20.023437 8.980469 20.023437 20.019531v20.003906c0 5.519532 4.476563 10 10 10 5.523438 0 10-4.480468 10-10v-20.003906c-.003906-22.066406-17.957031-40.019531-40.023437-40.019531zm-71.128907 34.351563h-109.921874c-13.429688 0-24.351563-10.925782-24.351563-24.351563 0-12.574219 9.816406-23.234375 22.34375-24.269531 5.21875-.429688 9.222656-4.816406 9.179687-10.050782v-.03125c0-13.425781 10.921876-24.351562 24.351563-24.351562h46.878906c13.425781 0 24.351563 10.925781 24.351563 24.265625l-.003906.117187c-.042969 5.238282 3.960937 9.621094 9.179687 10.050782 12.53125 1.035156 22.34375 11.695312 22.34375 24.269531 0 13.425781-10.921875 24.351563-24.351563 24.351563zm0 0"/><path d="m322.21875 198.726562c-5.523438 0-10 4.476563-10 10v263.253907c0 11.039062-8.980469 20.019531-20.019531 20.019531h-252.175781c-11.042969 0-20.023438-8.980469-20.023438-20.019531v-20.003907c0-5.519531-4.476562-10-10-10s-10 4.480469-10 10v20.003907c0 22.066406 17.953125 40.019531 40.023438 40.019531h252.175781c22.066406 0 40.019531-17.953125 40.019531-40.019531v-263.253907c0-5.523437-4.476562-10-10-10zm0 0"/><path d="m151.171875 199.296875c-45.28125 0-82.121094 36.839844-82.121094 82.121094s36.839844 82.125 82.121094 82.125c18.570313 0 36.195313-6.121094 50.578125-17.40625l44.351562 44.351562c1.953126 1.953125 4.511719 2.929688 7.070313 2.929688s5.117187-.976563 7.070313-2.929688c3.90625-3.902343 3.90625-10.234375 0-14.140625l-44.351563-44.355468c11.285156-14.382813 17.40625-32.007813 17.40625-50.574219 0-45.28125-36.839844-82.121094-82.125-82.121094zm43.929687 126.050781c-11.734374 11.730469-27.335937 18.195313-43.929687 18.195313-34.253906 0-62.125-27.871094-62.125-62.125 0-34.253907 27.871094-62.121094 62.125-62.121094s62.125 27.867187 62.125 62.121094c0 16.59375-6.460937 32.195312-18.195313 43.929687zm0 0"/><path d="m10 421.976562c5.507812 0 10-4.492187 10-10 0-5.507812-4.492188-10-10-10s-10 4.492188-10 10c0 5.507813 4.492188 10 10 10zm0 0"/><path d="m322.21875 158.726562c-5.507812 0-10 4.492188-10 10 0 5.507813 4.492188 10 10 10s10-4.492187 10-10c0-5.507812-4.492188-10-10-10zm0 0"/></g></svg>