<svg id="Capa_1" enable-background="new 0 0 511.998 511.998" height="512" viewBox="0 0 511.998 511.998" width="512" xmlns="http://www.w3.org/2000/svg"><g><path d="m499.818 80.468c8.647-9.255 12.934-21.339 12.07-34.025-1.527-22.432-19.599-40.484-42.037-41.991-11.043-.742-25.52 2.128-31.2 12.754h-365.413c-5.763-10.601-19.987-13.499-31.098-12.754-22.438 1.507-40.511 19.559-42.037 41.992-1.754 25.781 19.236 48.386 45.134 48.386 3.577 0 7.086-.426 10.504-1.242v287.261c0 2.998 1.345 5.837 3.664 7.737l142.635 116.807c1.787 1.463 4.026 2.263 6.336 2.263h95.697c2.31 0 4.549-.8 6.336-2.263l141.493-115.666c2.323-1.903 4.392-5.89 4.387-8.893v-111.322c-.008-5.518-4.227-9.985-9.743-9.985-.005 0-.01 0-.015 0-5.523.008-10.267 4.492-10.259 10.015v106.576l-135.772 111.538h-88.553l-136.207-111.544v-294.141h26.242v278.658c0 2.987 1.335 5.818 3.641 7.718l112.494 92.684c1.791 1.476 4.039 2.282 6.359 2.282h63.496c2.32 0 4.568-.807 6.359-2.282l112.494-92.684c2.306-1.899 3.641-4.73 3.641-7.718v-278.658h25.807v99.516c.008 5.518 4.628 9.985 10.145 9.985h.015c5.523-.008 9.865-4.492 9.857-10.015v-87.86c3.405.81 6.901 1.232 10.466 1.232 12.484 0 24.536-5.234 33.062-14.361zm-63.562-18.501h-25.793v-24.761h25.793zm-151.873 381.345h-56.318l-106.083-87.401v-273.94h268.483v273.94zm-182.398-381.345h-26.25v-24.761h26.25zm288.478-24.761v24.761h-268.478v-24.761zm-334.728 34.981c0 .208-.104.405-.25.47-3.23 1.442-6.679 2.173-10.25 2.173-14.471 0-26.162-12.608-25.18-27.028.851-12.498 10.92-22.555 23.424-23.395.595-.04 1.187-.06 1.776-.06 3.501 0 6.884.706 10.078 2.106.244.107.401.316.401.535v.218 44.765.216zm429.469-5.372c-4.829 5.168-11.381 8.015-18.449 8.015-3.628 0-7.127-.754-10.401-2.241-.055-.025-.092-.09-.096-.16l-.001-.476c0-.013-.002-.025-.002-.038v-44.709-.454c0-.064.018-.109.03-.133 3.834-1.755 7.943-2.5 12.225-2.212 12.503.84 22.573 10.897 23.423 23.394.485 7.098-1.906 13.851-6.729 19.014z"/><path d="m353.695 147.406h-70.575c-5.523 0-10 4.477-10 10v130.534l-7.211 6.474h-21.099l-6.923-6.391v-130.617c0-5.523-4.477-10-10-10h-71.619c-5.523 0-10 4.477-10 10s4.477 10 10 10h21.806v140.941c0 2.652 1.054 5.196 2.929 7.071l33.676 33.676c1.875 1.875 4.419 2.929 7.071 2.929h66.463c2.652 0 5.196-1.054 7.071-2.929l33.676-33.676c1.875-1.875 2.929-4.419 2.929-7.071v-140.941h21.806c5.523 0 10-4.477 10-10s-4.477-10-10-10zm-41.806 156.8-27.818 27.818h-58.179l-27.818-27.818v-136.8h19.813v124.995c0 2.791 1.167 5.455 3.217 7.348l13.013 12.012c1.847 1.706 4.269 2.652 6.783 2.652h28.838c2.466 0 4.845-.911 6.68-2.559l13.381-12.012c2.113-1.896 3.32-4.602 3.32-7.441v-124.995h18.77z"/><path d="m454.565 218.612c-2.363-3.546-6.872-5.217-10.974-4.076-4.202 1.169-7.214 5.025-7.33 9.389-.237 8.901 11.049 13.626 17.215 7.158 3.217-3.373 3.634-8.583 1.089-12.471z"/></g></svg>